<svg id="Layer_1" data-name="Layer 1" xmlns="http://www.w3.org/2000/svg" viewBox="0 0 1449.67 420.37"><defs><style>.cls-1{fill:#d81b60;}.cls-2{font-size:185.47px;stroke-width:5px;font-family:Papyrus-Regular, Papyrus;}.cls-2,.cls-3{stroke:#000;stroke-miterlimit:10;}.cls-3{font-size:78.09px;stroke-width:0.75px;font-family:OratorStd-Slanted, Orator Std;font-style:oblique;}</style></defs><title>Untitled-1</title><g id="Outline"><path class="cls-1" d="M1319.11,431l-6.45-17c-18.42,9.55-28,20.95-28.57,33.88L1252.32,643a10,10,0,0,0,3.79,9.79c27.08,18.57,62.48,33.05,105.21,43C1401,705.09,1445.86,710,1491.09,710s90.1-4.9,129.76-14.16c42.73-10,78.13-24.46,105.21-43a10,10,0,0,0,3.8-9.78l-10.62-65.23-15.64,3.49,3.24,20-10.6,6.47a248.81,248.81,0,0,1-47.86,22.78c-43.89,15.21-99.75,23.59-157.29,23.59-59,0-116-8.77-160.42-24.7L1326,647.2c45.88,16.45,104.51,25.51,165.09,25.51,59,0,116.49-8.65,161.81-24.36a262.93,262.93,0,0,0,50.7-24.12l6.36-3.87,3.18,19.59c-106.74,68.42-337.36,68.42-444.11,0l27.16-166.83q11.73,10.56,34.71,18.95c38.78,14.13,97.16,22.24,160.19,22.24s121.41-8.11,160.19-22.24q23-8.35,34.71-18.95l14.57,89.53,15.65-3.49L1698.1,448c-.87-21.89-27.1-39-78-51l-3.13,18.27c51.64,12.09,65.28,27.42,65.28,33.82,0,5.46-8.91,14.2-28.59,22.43-6.83-16.57-20.16-28.17-35.69-31.07-3.25-24-19.32-42.79-39.82-46.59A59.92,59.92,0,0,0,1564.69,363a45.4,45.4,0,0,0-26.38-15.72c-4.1-30.51-28.56-51.35-54.64-46.56-20.5,3.77-36.57,22.58-39.79,46.56A45.43,45.43,0,0,0,1417.49,363a59.24,59.24,0,0,0-12.64,26.33c-29.57,3.95-55.55,9.92-75.46,17.36l4.85,17.75a277.34,277.34,0,0,1,40.62-11.26,60.11,60.11,0,0,0-10.63,27.28,45.4,45.4,0,0,0-26.38,15.72,56.6,56.6,0,0,0-9.29,15.37c-19.69-8.24-28.6-17-28.6-22.44C1300,445.16,1305,438.35,1319.11,431Zm30,38.3c6-7,14.07-10.95,22.52-10.93,4.4,0,8-4.17,8-9.32,0-20.58,14.27-37.26,31.86-37.27,4.4,0,8-4.17,8-9.31,0-1.23.06-2.51.16-3.76,1.66-19,15.35-33.51,31.7-33.52,4.4,0,8-4.17,8-9.31,0-20.59,14.26-37.28,31.86-37.28s31.85,16.69,31.85,37.28c0,5.14,3.57,9.31,8,9.31,16.33,0,30,14.47,31.69,33.49.11,1.28.16,2.56.16,3.79,0,5.14,3.57,9.31,8,9.31,17.59,0,31.84,16.7,31.86,37.27,0,5.15,3.57,9.32,8,9.32,11.41,0,21.93,7.17,27.63,18.72-37.14,11.84-90,18.55-147.08,18.55S1381.15,489,1344,477.13a37.41,37.41,0,0,1,5.1-7.81Zm134-57.52v18.64c-13.19,0-23.87,12.52-23.89,27.95H1443.3C1443.33,432.68,1461.14,411.84,1483.12,411.81ZM1507,383.86h-15.92V365.22H1507Zm31.86,74.54h-15.93V439.77h15.93Zm-135.38-18.63h15.92V458.4h-15.92ZM1310.21,550l15.65,3.44-10.54,65.79-15.65-3.43Zm18.21-13-15.67-3.33,3.27-21,15.67,3.34Z" transform="translate(-280.33 -300.01)"/></g><text class="cls-2" transform="translate(2.5 255.42) scale(0.92 1)">strayHunger</text><text class="cls-3" transform="translate(2.4 397.5) scale(0.92 1)">feeding the hungry </text></svg>